<svg width="20" height="14" viewBox="0 0 20 14" fill="none" xmlns="http://www.w3.org/2000/svg">
<path d="M9.97176 9.97187C8.86707 9.97187 7.97176 10.8675 7.97176 11.9722C7.97176 13.0769 8.86738 13.9725 9.97176 13.9725C11.0761 13.9725 11.9718 13.0769 11.9718 11.9722C11.9718 10.8675 11.103 9.97187 9.97176 9.97187ZM9.99988 4.97187C7.80457 4.97187 5.69051 5.77187 4.04676 7.22281C3.63426 7.61562 3.59363 8.24687 3.95926 8.6625C4.32801 9.075 4.95926 9.11562 5.37176 8.75C6.64988 7.62187 8.29363 7 9.99988 7C11.7061 7 13.353 7.62125 14.628 8.75C14.8186 8.91875 15.0561 9 15.2905 9C15.4323 9.00011 15.5726 8.97005 15.7019 8.91181C15.8312 8.85356 15.9466 8.76847 16.0405 8.66219C16.4061 8.24687 16.3686 7.61562 15.953 7.25C14.3093 5.8 12.1968 4.97187 9.99988 4.97187ZM19.6936 3.89687C17.0718 1.38375 13.6311 0 9.99988 0C6.36863 0 2.9277 1.38375 0.30751 3.89687C-0.0909275 4.27969 -0.10374 4.9125 0.278198 5.31094C0.660073 5.71031 1.29289 5.72094 1.69226 5.34025C3.90926 3.15937 6.88738 2 9.99988 2C13.1124 2 16.0343 3.18656 18.3061 5.34062C18.503 5.525 18.7499 5.61875 18.9999 5.61875C19.2626 5.61875 19.5252 5.51622 19.7214 5.31112C20.103 4.9125 20.0905 4.25312 19.6936 3.89687Z" fill="#DDDDDD"/>
<path d="M11.9999 12C11.9999 13.1046 11.1045 14 9.99988 14C8.89532 14 7.99989 13.1046 7.99989 12C7.99989 10.8954 8.89532 10 9.99988 10C11.1045 10 11.9999 10.8954 11.9999 12Z" fill="black"/>
</svg>
