<svg width="24" height="24" viewBox="0 0 24 24" fill="none" xmlns="http://www.w3.org/2000/svg">
<path d="M11.9718 14.9719C10.8671 14.9719 9.97176 15.8675 9.97176 16.9722C9.97176 18.0769 10.8674 18.9725 11.9718 18.9725C13.0761 18.9725 13.9718 18.0769 13.9718 16.9722C13.9718 15.8675 13.103 14.9719 11.9718 14.9719ZM11.9999 9.97187C9.80457 9.97187 7.69051 10.7719 6.04676 12.2228C5.63426 12.6156 5.59364 13.2469 5.95926 13.6625C6.32801 14.075 6.95926 14.1156 7.37176 13.75C8.64989 12.6219 10.2936 12 11.9999 12C13.7061 12 15.353 12.6212 16.628 13.75C16.8186 13.9187 17.0561 14 17.2905 14C17.4323 14.0001 17.5726 13.97 17.7019 13.9118C17.8312 13.8536 17.9466 13.7685 18.0405 13.6622C18.4061 13.2469 18.3686 12.6156 17.953 12.25C16.3093 10.8 14.1968 9.97187 11.9999 9.97187ZM21.6936 8.89687C19.0718 6.38375 15.6311 5 11.9999 5C8.36863 5 4.9277 6.38375 2.30751 8.89687C1.90907 9.27969 1.89626 9.9125 2.2782 10.3109C2.66007 10.7103 3.29289 10.7209 3.69226 10.3402C5.90926 8.15937 8.88738 7 11.9999 7C15.1124 7 18.0343 8.18656 20.3061 10.3406C20.503 10.525 20.7499 10.6187 20.9999 10.6187C21.2626 10.6187 21.5252 10.5162 21.7214 10.3111C22.103 9.9125 22.0905 9.25312 21.6936 8.89687Z" fill="black"/>
</svg>
