<svg width="24" height="24" viewBox="0 0 24 24" fill="none" xmlns="http://www.w3.org/2000/svg">
<path d="M12 14.9719C10.8953 14.9719 10 15.8675 10 16.9722C10 18.0769 10.8956 18.9725 12 18.9725C13.1044 18.9725 14 18.0769 14 16.9722C14 15.8675 13.1312 14.9719 12 14.9719Z" fill="#DDDDDD"/>
<path d="M21.6936 8.89687C19.0718 6.38375 15.6311 5 11.9999 5C8.36863 5 4.9277 6.38375 2.30751 8.89687C1.90907 9.27969 1.89626 9.9125 2.2782 10.3109C2.66007 10.7103 3.29289 10.7209 3.69226 10.3402C5.90926 8.15937 8.88738 7 11.9999 7C15.1124 7 18.0343 8.18656 20.3061 10.3406C20.503 10.525 20.7499 10.6187 20.9999 10.6187C21.2626 10.6187 21.5252 10.5162 21.7214 10.3111C22.103 9.9125 22.0905 9.25312 21.6936 8.89687Z" fill="#DDDDDD"/>
<path fill-rule="evenodd" clip-rule="evenodd" d="M9.30681 14.1931C9.13737 14.0237 9.13737 13.749 9.30681 13.5795L14.0795 8.80683C14.2489 8.63738 14.5237 8.63738 14.6931 8.80683C14.8626 8.97628 14.8626 9.25101 14.6931 9.42046L9.92044 14.1931C9.751 14.3626 9.47626 14.3626 9.30681 14.1931Z" fill="#413D45"/>
<path fill-rule="evenodd" clip-rule="evenodd" d="M9.30647 8.80681C9.47592 8.63737 9.75065 8.63737 9.9201 8.80681L14.6928 13.5795C14.8622 13.7489 14.8622 14.0237 14.6928 14.1931C14.5233 14.3626 14.2486 14.3626 14.0791 14.1931L9.30647 9.42044C9.13702 9.251 9.13702 8.97626 9.30647 8.80681Z" fill="#413D45"/>
<path fill-rule="evenodd" clip-rule="evenodd" d="M9.3786 11.5425C9.64235 12.0278 9.4628 12.6349 8.97756 12.8987C8.23343 13.3032 7.62783 13.7864 7.20711 14.2071C6.81658 14.5976 6.18342 14.5976 5.79289 14.2071C5.40237 13.8166 5.40237 13.1834 5.79289 12.7929C6.34079 12.245 7.09924 11.6433 8.02244 11.1415C8.50768 10.8777 9.11485 11.0573 9.3786 11.5425Z" fill="#DDDDDD"/>
<path fill-rule="evenodd" clip-rule="evenodd" d="M18.2063 14.2595C17.8059 14.6399 17.1729 14.6236 16.7926 14.2231C16.2093 13.609 15.5858 13.1491 15.0705 12.8517C14.5922 12.5755 14.4283 11.9639 14.7045 11.4856C14.9806 11.0073 15.5922 10.8435 16.0705 11.1196C16.7415 11.507 17.519 12.0839 18.2427 12.8458C18.623 13.2462 18.6067 13.8792 18.2063 14.2595Z" fill="#DDDDDD"/>
</svg>
