<svg width="24" height="24" viewBox="0 0 24 24" fill="none" xmlns="http://www.w3.org/2000/svg">
<path d="M12 14.9719C10.8953 14.9719 10 15.8675 10 16.9722C10 18.0769 10.8956 18.9725 12 18.9725C13.1044 18.9725 14 18.0769 14 16.9722C14 15.8675 13.1312 14.9719 12 14.9719Z" fill="black"/>
<path d="M21.6936 8.89687C19.0718 6.38375 15.6311 5 11.9999 5C8.36863 5 4.9277 6.38375 2.30751 8.89687C1.90907 9.27969 1.89626 9.9125 2.2782 10.3109C2.66007 10.7103 3.29289 10.7209 3.69226 10.3402C5.90926 8.15937 8.88738 7 11.9999 7C15.1124 7 18.0343 8.18656 20.3061 10.3406C20.503 10.525 20.7499 10.6187 20.9999 10.6187C21.2626 10.6187 21.5252 10.5162 21.7214 10.3111C22.103 9.9125 22.0905 9.25312 21.6936 8.89687Z" fill="#DDDDDD"/>
<path d="M12.2906 9.97186C10.0953 9.97186 7.98127 10.7719 6.33752 12.2228C5.92502 12.6156 5.8844 13.2469 6.25002 13.6625C6.61877 14.075 7.25002 14.1156 7.66252 13.75C8.94065 12.6219 10.5844 12 12.2906 12C13.9969 12 15.6438 12.6212 16.9188 13.75C17.1094 13.9187 17.3469 14 17.5813 14C17.7231 14.0001 17.8633 13.97 17.9926 13.9118C18.1219 13.8536 18.2374 13.7685 18.3313 13.6622C18.6969 13.2469 18.6594 12.6156 18.2438 12.25C16.6 10.8 14.4875 9.97186 12.2906 9.97186Z" fill="black"/>
</svg>
